<svg version="1.1" id="Layer_1" xmlns="http://www.w3.org/2000/svg" xmlns:xlink="http://www.w3.org/1999/xlink" x="0px" y="0px"
	 width="100%" viewBox="0 0 682 841" enable-background="new 0 0 682 841" xml:space="preserve">
<path fill="#0E4659" opacity="1.000000" stroke="none" 
	d="
M1.000002,314.000000 
	C1.000000,313.250000 1.000000,312.500000 1.375840,311.187866 
	C2.798887,302.039459 3.495871,293.393402 4.948182,284.876190 
	C17.648230,210.395218 54.268421,150.093170 114.600670,104.968117 
	C175.379318,59.509167 244.324982,42.001495 319.430237,52.081367 
	C402.000641,63.163143 466.881439,104.531235 514.102783,172.713593 
	C556.880737,234.480194 569.120422,303.624969 559.520081,377.333191 
	C554.055969,419.284637 542.786865,459.685364 527.074707,498.888000 
	C521.831482,511.970032 516.239868,524.912354 510.843811,537.950806 
	C510.880005,537.983032 510.935852,537.903748 510.603516,538.013550 
	C510.004395,538.771729 509.737671,539.420044 509.279480,540.327881 
	C506.837402,545.222839 504.761566,549.953125 502.306152,554.477417 
	C491.121552,575.085693 479.830231,595.636047 468.392944,616.457275 
	C467.819092,617.247559 467.392334,617.764893 467.045349,618.331177 
	C419.080750,696.613892 362.802216,768.383118 298.748962,834.148071 
	C290.526794,842.589905 274.538849,843.365845 266.770782,835.595825 
	C261.236542,830.060181 255.459076,824.763306 250.021194,819.136597 
	C216.872162,784.836731 185.888885,748.677551 157.169434,710.585754 
	C114.167358,653.550354 76.392982,593.389038 47.518120,527.863281 
	C23.808542,474.059113 7.357671,418.352295 2.564304,359.508545 
	C2.250433,355.655457 1.530860,351.835419 1.000001,348.000000 
	C1.000000,346.285614 1.000000,344.571198 1.369591,342.204041 
	C1.828619,334.194489 1.987527,326.837494 1.958421,319.481201 
	C1.951187,317.652924 1.335835,315.826996 1.000002,314.000000 
M277.139771,782.035522 
	C282.345215,782.902405 286.509308,781.261780 290.009308,777.251038 
	C301.834839,763.699890 314.229340,750.619568 325.587524,736.691528 
	C354.008301,701.840515 378.271301,664.351379 395.557587,622.629639 
	C397.471832,618.009460 399.304230,613.355347 401.229614,608.580444 
	C336.625519,526.715881 215.870651,533.581543 159.007477,609.317261 
	C163.445770,619.850891 167.496964,630.567993 172.387680,640.887207 
	C196.908920,692.626404 231.057892,737.479736 271.201050,777.980225 
	C272.700134,779.492676 274.614990,780.592896 277.139771,782.035522 
M198.268234,370.230988 
	C207.321320,379.322205 216.753006,388.071503 225.341980,397.581848 
	C239.529709,413.291443 260.821411,411.706482 274.091370,397.784180 
	C296.041382,374.755005 318.939484,352.629425 341.437378,330.122406 
	C360.166016,311.386200 378.979797,292.734070 397.592133,273.883057 
	C410.632355,260.675690 410.658508,241.642700 397.973877,229.276779 
	C385.790009,217.399033 367.035339,218.118454 354.224945,230.946884 
	C320.789398,264.429535 287.351929,297.910278 253.909561,331.386139 
	C252.632385,332.664612 251.296341,333.884277 249.806198,335.304352 
	C248.804489,334.379761 247.949463,333.643799 247.153931,332.848358 
	C230.541199,316.237610 213.951782,299.603546 197.320740,283.011200 
	C189.253036,274.962250 179.462662,272.172791 168.468735,274.661072 
	C156.934830,277.271576 149.393005,284.750092 146.187408,295.992828 
	C142.973129,307.265991 145.670609,317.414856 154.021576,325.824890 
	C168.578812,340.484985 183.183792,355.097717 198.268234,370.230988 
z"/>
<!-- Fondo antes blanco: AHORA TRANSPARENTE -->
<path fill="none" opacity="1.000000" stroke="none" 
	d="
M510.807556,537.918579 
	C516.239868,524.912354 521.831482,511.970032 527.074707,498.888000 
	C542.786865,459.685364 554.055969,419.284637 559.520081,377.333191 
	C569.120422,303.624969 556.880737,234.480194 514.102783,172.713593 
	C466.881439,104.531235 402.000641,63.163143 319.430237,52.081367 
	C244.324982,42.001495 175.379318,59.509167 114.600670,104.968117 
	C54.268421,150.093170 17.648230,210.395218 4.948182,284.876190 
	C3.495871,293.393402 2.798887,302.039459 1.375840,310.812866 
	C1.000000,207.681671 1.000000,104.363350 1.000000,1.022515 
	C228.285294,1.022515 455.570587,1.022515 682.927979,1.022515 
	C682.927979,281.244568 682.927979,561.489197 682.927979,841.866882 
	C455.788513,841.866882 228.576920,841.866882 1.000000,841.866882 
	C1.000000,677.645935 1.000000,513.291626 1.000001,348.468658 
	C1.530860,351.835419 2.250433,355.655457 2.564304,359.508545 
	C7.357671,418.352295 23.808542,474.059113 47.518120,527.863281 
	C76.392982,593.389038 114.167358,653.550354 157.169434,710.585754 
	C185.888885,748.677551 216.872162,784.836731 250.021194,819.136597 
	C255.459076,824.763306 261.236542,830.060181 266.770782,835.595825 
	C274.538849,843.365845 290.526794,842.589905 298.748962,834.148071 
	C362.802216,768.383118 419.080750,696.613892 467.045349,618.331177 
	C467.392334,617.764893 467.819092,617.247559 468.792542,616.448608 
	C479.945587,610.238831 490.852051,604.810913 501.026581,598.248230 
	C550.891541,566.084717 589.590088,523.654419 617.027344,470.971008 
	C639.269104,428.263733 652.835632,383.115570 655.898438,334.475281 
	C655.601929,316.363068 655.237000,298.710419 654.917236,280.643066 
	C653.789734,271.828857 653.007507,263.352997 651.380066,255.042633 
	C641.957153,206.923920 624.061279,162.309113 595.192688,122.459862 
	C588.280457,112.918465 580.559937,103.895332 572.576660,95.217575 
	C565.672363,87.712700 554.650085,87.568542 546.207581,93.849899 
	C538.811646,99.352600 536.591553,109.259956 541.101074,118.052773 
	C542.677673,121.126961 544.861633,123.927238 547.004272,126.668037 
	C581.719849,171.073853 604.311768,220.735260 611.971436,276.820770 
	C617.808838,319.564117 613.191589,361.488129 600.748291,402.549683 
	C584.872253,454.939056 556.119202,499.233582 515.162781,535.568542 
	C513.961548,536.634277 512.270325,537.147644 510.807556,537.918579 
z"/>
<path fill="#83A0AA" opacity="1.000000" stroke="none" 
	d="
M1.000002,314.468658 
	C1.335835,315.826996 1.951187,317.652924 1.958421,319.481201 
	C1.987527,326.837494 1.828619,334.194489 1.369591,341.775635 
	C1.000000,332.979095 1.000000,323.958221 1.000002,314.468658 
z"/>
<path fill="#E7E4DD" opacity="1.000000" stroke="none" 
	d="
M276.737946,781.960388 
	C274.614990,780.592896 272.700134,779.492676 271.201050,777.980225 
	C231.057892,737.479736 196.908920,692.626404 172.387680,640.887207 
	C167.496964,630.567993 163.445770,619.850891 159.012756,609.314941 
	C215.870651,533.581543 336.625519,526.715881 401.229614,608.580444 
	C399.304230,613.355347 397.471832,618.009460 395.557587,622.629639 
	C378.271301,664.351379 354.008301,701.840515 325.587524,736.691528 
	C314.229340,750.619568 301.834839,763.699890 290.009308,777.251038 
	C286.509308,781.261780 282.345215,782.902405 276.737946,781.960388 
z"/>
<path fill="#FDBE3F" opacity="1.000000" stroke="none" 
	d="
M510.843781,537.950806 
	C512.270325,537.147644 513.961548,536.634277 515.162781,535.568542 
	C556.119202,499.233582 584.872253,454.939056 600.748291,402.549683 
	C613.191589,361.488129 617.808838,319.564117 611.971436,276.820770 
	C604.311768,220.735260 581.719849,171.073853 547.004272,126.668037 
	C544.861633,123.927238 542.677673,121.126961 541.101074,118.052773 
	C536.591553,109.259956 538.811646,99.352600 546.207581,93.849899 
	C554.650085,87.568542 565.672363,87.712700 572.576660,95.217575 
	C580.559937,103.895332 588.280457,112.918465 595.192688,122.459862 
	C624.061279,162.309113 641.957153,206.923920 651.380066,255.042633 
	C653.007507,263.352997 653.789734,271.828857 654.692383,280.969940 
	C654.612183,286.290375 654.933289,290.868225 654.965393,295.448120 
	C655.044250,306.686646 654.950623,317.926361 655.026917,329.164917 
	C655.039978,331.089966 655.549683,333.011658 655.830017,334.934906 
	C652.835632,383.115570 639.269104,428.263733 617.027344,470.971008 
	C589.590088,523.654419 550.891541,566.084717 501.026581,598.248230 
	C490.852051,604.810913 479.945587,610.238831 468.976898,616.198486 
	C479.830231,595.636047 491.121552,575.085693 502.306152,554.477417 
	C504.761566,549.953125 506.837402,545.222839 509.594208,540.115417 
	C510.378876,539.063538 510.657349,538.483643 510.935852,537.903748 
	C510.935852,537.903748 510.880005,537.983032 510.843781,537.950806 
z"/>
<path fill="#F1F1F2" opacity="1.000000" stroke="none" 
	d="
M198.018494,369.980652 
	C183.183792,355.097717 168.578812,340.484985 154.021576,325.824890 
	C145.670609,317.414856 142.973129,307.265991 146.187408,295.992828 
	C149.393005,284.750092 156.934830,277.271576 168.468735,274.661072 
	C179.462662,272.172791 189.253036,274.962250 197.320740,283.011200 
	C213.951782,299.603546 230.541199,316.237610 247.153931,332.848358 
	C247.949463,333.643799 248.804489,334.379761 249.806198,335.304352 
	C251.296341,333.884277 252.632385,332.664612 253.909561,331.386139 
	C287.351929,297.910278 320.789398,264.429535 354.224945,230.946884 
	C367.035339,218.118454 385.790009,217.399033 397.973877,229.276779 
	C410.658508,241.642700 410.632355,260.675690 397.592133,273.883057 
	C378.979797,292.734070 360.166016,311.386200 341.437378,330.122406 
	C318.939484,352.629425 296.041382,374.755005 274.091370,397.784180 
	C260.821411,411.706482 239.529709,413.291443 225.341980,397.581848 
	C216.753006,388.071503 207.321320,379.322205 198.018494,369.980652 
z"/>
<path fill="#FFFFFF" opacity="1.000000" stroke="none" 
	d="
M510.603516,538.013550 
	C510.657349,538.483643 510.378876,539.063538 509.785645,539.855896 
	C509.737671,539.420044 510.004395,538.771729 510.603516,538.013550 
z"/>
<path fill="#FDA71A" opacity="1.000000" stroke="none" 
	d="
M655.898438,334.475281 
	C655.549683,333.011658 655.039978,331.089966 655.026917,329.164917 
	C654.950623,317.926361 655.044250,306.686646 654.965393,295.448120 
	C654.933289,290.868225 654.612183,286.290375 654.647339,281.384705 
	C655.237000,298.710419 655.601929,316.363068 655.898438,334.475281 
z"/>
</svg>
